<?xml version="1.0" encoding="utf-8"?>
<!DOCTYPE svg PUBLIC "-//W3C//DTD SVG 1.1//EN" "http://www.w3.org/Graphics/SVG/1.1/DTD/svg11.dtd">
<svg xmlns="http://www.w3.org/2000/svg" xmlns:xlink="http://www.w3.org/1999/xlink" version="1.1" baseProfile="full" width="23.9998" height="23.9999" viewBox="0 0 24.00 24.00" enable-background="new 0 0 24.00 24.00" xml:space="preserve">
	<path fill="none" stroke-width="2" stroke-linecap="round" stroke-linejoin="round" stroke="#FFFFFF" stroke-opacity="1" d="M 7.99959,3.49999L 11.9996,7.49998L 15.9997,3.49999"/>
	<path fill="#FFFFFF" fill-opacity="1" stroke-linejoin="round" d="M 3.19995,17.6333L 3.19995,16.7L 4.79993,16.7L 4.79993,17.6333L 3.19995,17.6333 Z M 3.19995,15.7667L 3.19995,14.8334L 4.79993,14.8334L 4.79993,15.7667L 3.19995,15.7667 Z M 3.19995,13.9L 3.19995,13.5001L 3.57707,13.1229L 5.17708,13.1229L 4.79993,13.5001L 4.79993,13.9L 3.19995,13.9 Z M 5.25952,12.2001L 6.19286,12.2001L 6.19286,13.8L 5.25952,13.8L 5.25952,12.2001 Z M 7.12617,12.2001L 8.05951,12.2001L 8.05951,13.8L 7.12617,13.8L 7.12617,12.2001 Z M 8.99284,12.2001L 9.92616,12.2001L 9.92616,13.8L 8.99284,13.8L 8.99284,12.2001 Z M 10.8595,12.2001L 11.7928,12.2001L 11.7928,13.8L 10.8595,13.8L 10.8595,12.2001 Z M 12.7262,12.2001L 13.6595,12.2001L 13.6595,13.8L 12.7262,13.8L 12.7262,12.2001 Z M 14.5928,12.2001L 15.5261,12.2001L 15.5261,13.8L 14.5928,13.8L 14.5928,12.2001 Z M 16.4595,12.2001L 17.3928,12.2001L 17.3928,13.8L 16.4595,13.8L 16.4595,12.2001 Z M 18.3261,12.2001L 19.2595,12.2001L 19.2595,13.8L 18.3261,13.8L 18.3261,12.2001 Z M 19.9899,12.69L 20.7999,13.5001L 20.7999,14.4191L 19.2,14.4191L 19.2,13.5001L 19.9899,14.29L 19.9899,12.69 Z M 20.7999,15.3525L 20.7999,16.2858L 19.2,16.2858L 19.2,15.3525L 20.7999,15.3525 Z M 20.7999,17.2191L 20.7999,18.1524L 19.2,18.1524L 19.2,17.2191L 20.7999,17.2191 Z M 20.7999,19.0858L 20.7999,19.5L 20.4329,19.8671L 18.8329,19.8671L 19.2,19.5L 19.2,19.0858L 20.7999,19.0858 Z M 18.7546,20.8L 17.8213,20.8L 17.8213,19.2L 18.7546,19.2L 18.7546,20.8 Z M 16.8879,20.8L 15.9546,20.8L 15.9546,19.2L 16.8879,19.2L 16.8879,20.8 Z M 15.0213,20.8L 14.088,20.8L 14.088,19.2L 15.0213,19.2L 15.0213,20.8 Z M 13.1546,20.8L 12.2213,20.8L 12.2213,19.2L 13.1546,19.2L 13.1546,20.8 Z M 11.288,20.8L 10.3546,20.8L 10.3546,19.2L 11.288,19.2L 11.288,20.8 Z M 9.42131,20.8L 8.48798,20.8L 8.48798,19.2L 9.42131,19.2L 9.42131,20.8 Z M 7.55464,20.8L 6.62132,20.8L 6.62132,19.2L 7.55464,19.2L 7.55464,20.8 Z M 5.68799,20.8L 4.75465,20.8L 4.75465,19.2L 5.68799,19.2L 5.68799,20.8 Z M 4.0201,20.3202L 3.19995,19.5L 3.19995,18.5667L 4.79993,18.5667L 4.79993,19.5L 4.0201,18.7202L 4.0201,20.3202 Z "/>
	<path fill="#FFFFFF" fill-opacity="1" stroke-width="1.6" stroke-linejoin="round" stroke="#FFFFFF" stroke-opacity="1" d="M 3.99998,19.5L 3.99998,18.5C 3.99998,18.2239 4.22383,18 4.49998,18L 19.5,18C 19.7761,18 20,18.2239 20,18.5L 20,19.5C 20,19.7762 19.7761,20 19.5,20L 4.49998,20C 4.22383,20 3.99998,19.7762 3.99998,19.5 Z "/>
</svg>
