<?xml version="1.0" encoding="utf-8"?>
<!DOCTYPE svg PUBLIC "-//W3C//DTD SVG 1.1//EN" "http://www.w3.org/Graphics/SVG/1.1/DTD/svg11.dtd">
<svg xmlns="http://www.w3.org/2000/svg" xmlns:xlink="http://www.w3.org/1999/xlink" version="1.1" baseProfile="full" width="23.9998" height="23.9999" viewBox="0 0 24.00 24.00" enable-background="new 0 0 24.00 24.00" xml:space="preserve">
	<path fill="none" stroke-width="2" stroke-linecap="round" stroke-linejoin="round" stroke="#FFFFFF" stroke-opacity="1" d="M 7.99983,7.49999L 11.9998,3.49999L 15.9999,7.49999"/>
	<path fill="none" stroke-width="1.6" stroke-linejoin="round" stroke="#FFFFFF" stroke-opacity="1" d="M 4,19.5L 4,13.5001C 4,13.2239 4.22386,13.0001 4.5,13.0001L 19.5,13.0001C 19.7761,13.0001 20,13.2239 20,13.5001L 20,19.5C 20,19.7761 19.7761,20 19.5,20L 4.5,20C 4.22386,20 4,19.7761 4,19.5 Z "/>
	<path fill="#FFFFFF" fill-opacity="1" stroke-width="1.6" stroke-linejoin="round" stroke="#FFFFFF" stroke-opacity="1" d="M 4,19.5L 4,18.5C 4,18.2239 4.22386,18 4.5,18L 19.5,18C 19.7761,18 20,18.2239 20,18.5L 20,19.5C 20,19.7761 19.7761,20 19.5,20L 4.5,20C 4.22386,20 4,19.7761 4,19.5 Z "/>
</svg>
