<?xml version="1.0" encoding="utf-8"?>
<!DOCTYPE svg PUBLIC "-//W3C//DTD SVG 1.1//EN" "http://www.w3.org/Graphics/SVG/1.1/DTD/svg11.dtd">
<svg xmlns="http://www.w3.org/2000/svg" xmlns:xlink="http://www.w3.org/1999/xlink" version="1.1" baseProfile="full" width="428" height="164" viewBox="0 0 428.00 164.00" enable-background="new 0 0 428.00 164.00" xml:space="preserve">
	<g>
		<path fill="#316AB4" fill-opacity="1" stroke-width="0.2" stroke-linejoin="round" d="M 132.396,104.28L 115.699,104.28C 115.653,103.155 115.576,102.138 115.575,101.121C 115.571,88.7783 115.578,76.4354 115.581,64.0925C 115.581,63.7106 115.595,63.3275 115.581,62.9462C 115.29,55.0793 113.832,53.2198 106.875,52.6305C 102.754,52.2815 98.6035,52.3645 94.4667,52.2675C 93.8895,52.2541 93.3118,52.3194 92.4547,52.3627L 92.4547,104.196L 76.3647,104.196L 76.3647,52.3486C 72.9214,52.3486 69.7369,52.2968 66.5541,52.3627C 63.3446,52.4298 60.1368,52.6042 56.9285,52.7495C 53.481,52.9056 52.9746,53.4706 52.9709,57.3238C 52.9593,71.8672 52.966,86.4107 52.966,100.954L 52.966,104.23L 36.1257,104.23C 36.0836,103.25 36.0024,102.247 36.0019,101.245C 35.9945,82.7783 35.9909,64.3121 36,45.8453C 36.0024,39.9289 36.8535,38.7423 42.0141,38.2701C 64.4372,36.219 86.8945,35.5174 109.37,36.7662C 113.116,36.9749 116.909,37.9236 120.514,39.1535C 127.68,41.5986 131.588,47.4132 131.992,55.8114C 132.374,63.7307 132.326,71.6793 132.383,79.6163C 132.441,87.7345 132.396,95.8533 132.396,104.28 Z "/>
		<path fill="#316AB4" fill-opacity="1" stroke-width="0.2" stroke-linejoin="round" d="M 157.714,65.4517C 166.819,65.4517 175.402,65.4895 183.984,65.384C 184.723,65.3749 185.822,64.6055 186.127,63.8613C 188.302,58.5408 185.299,51.6593 180.261,51.1822C 175.007,50.685 169.681,50.871 164.4,51.1279C 161.365,51.2761 159.164,53.3309 158.57,56.8601C 158.118,59.5432 158.014,62.3013 157.714,65.4517 Z M 200.241,104.614C 196.59,105.007 192.765,105.62 188.925,105.794C 178.637,106.259 168.326,107.09 158.088,105.067C 148.497,103.172 143.746,98.2411 142.044,87.338C 140.239,75.765 140.459,64.087 142.787,52.5939C 144.306,45.0919 148.442,39.9941 155.176,38.2554C 166.61,35.3021 178.122,35.2039 189.558,38.2267C 196.647,40.0996 200.877,45.4292 201.704,53.5639C 202.23,58.744 202.213,64.0675 201.839,69.2714C 201.456,74.6003 199.214,76.5672 194.448,76.716C 190.48,76.8399 186.506,76.7545 182.535,76.7557C 174.437,76.7575 166.339,76.7563 158.282,76.7563C 156.575,85.9623 160.182,91.1442 168.551,91.7573C 179.027,92.5248 189.478,92.2435 200.241,90.7043L 200.241,104.614 Z "/>
		<path fill="#316AB4" fill-opacity="1" stroke-width="0.2" stroke-linejoin="round" d="M 301.616,38.357L 285.824,38.357C 285.334,45.4991 285.028,52.4527 284.341,59.3574C 283.548,67.3286 281.694,75.0527 276.905,81.2047C 271.595,88.027 270.925,87.7324 265.914,81.1326C 261.143,74.8508 259.244,67.1724 258.298,59.2165L 257.085,59.0811C 255.898,58.9493 254.743,58.7962 253.608,58.6461C 251.353,58.3472 249.224,58.0647 247.225,58.0189C 245.313,57.9744 243.326,57.9659 241.234,57.9909C 242.53,67.2664 245.101,76.1661 249.354,84.6296C 253.569,93.0186 259.285,99.766 266.887,104.362C 269.647,106.031 272.291,106.115 275.079,104.501C 282.129,100.421 287.334,94.1387 291.62,86.7849C 298.117,75.6335 300.777,63.1045 301.58,49.9825C 301.816,46.1317 301.616,42.2462 301.616,38.357 Z "/>
		<path fill="#316AB4" fill-opacity="1" stroke-width="0.2" stroke-linejoin="round" d="M 255.382,37.6712C 242.495,35.1284 229.653,36.0155 216.836,38.2282C 211.51,39.1476 210.946,40.0279 210.944,46.0078C 210.937,64.366 210.942,82.7249 210.941,101.084L 210.941,104.231L 228.041,104.231C 228.041,102.932 228.041,101.801 228.041,100.669C 228.041,86.3267 228.03,71.984 228.05,57.6412C 228.055,53.774 228.575,52.9937 231.924,52.8302C 234.82,52.6893 237.72,52.5923 240.62,52.5502C 242.864,52.5173 245.109,52.5142 247.351,52.5661C 250.702,52.6436 254.043,53.2548 257.688,53.6605C 257.688,53.2847 257.685,52.9114 257.684,52.5362C 257.669,48.5927 257.6,44.6815 257.731,40.7807C 257.801,38.6937 257.137,38.0177 255.382,37.6712 Z "/>
		<path fill="#316AB4" fill-opacity="1" stroke-width="0.2" stroke-linejoin="round" d="M 335.348,104.649L 335.348,90.4742C 338.233,90.8134 340.961,91.3558 343.696,91.4155C 353.39,91.6273 363.09,91.8871 372.781,91.684C 376.909,91.598 378.316,89.3273 378.327,85.1874C 378.336,82.0546 376.863,80.2842 374.38,79.7523C 369.247,78.6523 364.056,77.8964 358.92,76.8172C 354.122,75.8087 349.264,74.9309 344.61,73.3355C 338.12,71.1112 334.986,66.0281 334.652,58.4803C 334.086,45.678 338.438,39.6719 350.663,37.433C 363.702,35.0457 376.765,36.1658 389.781,38.1186C 390.107,38.1674 390.417,38.359 390.816,38.5164L 390.816,52.0783C 389.46,52.0014 388.146,52.0374 386.861,51.8373C 376.782,50.2676 366.677,49.835 356.546,51.0051C 352.703,51.4493 351.35,53.0129 351.374,56.5245C 351.398,60.1342 352.401,61.2311 356.315,61.9248C 363.898,63.2681 371.501,64.4877 379.055,66.0184C 381.847,66.5845 384.566,67.7546 387.244,68.8735C 392.432,71.0405 394.465,75.8777 394.826,81.6331C 395.039,85.0232 394.859,88.547 394.269,91.8768C 393.229,97.7444 389.668,101.54 384.761,103.083C 380.082,104.554 375.186,105.895 370.377,105.936C 359.159,106.033 347.935,105.316 336.714,104.916C 336.308,104.902 335.906,104.762 335.348,104.649 Z "/>
		<rect x="309.588" y="57.269" fill="#316AB4" fill-opacity="1" stroke-width="0.2" stroke-linejoin="round" width="16.8288" height="46.943"/>
		<path fill="#316AB4" fill-opacity="1" stroke-width="0.2" stroke-linejoin="round" d="M 317.791,36.4179C 325.887,36.3625 327.287,40.6775 327.287,43.5112C 327.108,50.2067 325.737,51.868 319.821,52.3694C 318.402,52.4896 316.96,52.45 315.539,52.3261C 310.397,51.8765 308.942,50.1933 308.555,44.3891C 308.53,44.0091 308.526,43.6271 308.516,43.2458C 308.516,40.2193 309.974,36.4716 317.791,36.4179 Z "/>
	</g>
	<g>
		<path fill="#667F91" fill-opacity="1" stroke-width="0.2" stroke-linejoin="round" d="M 43.3484,135.555L 45.443,135.555L 50.04,122.369L 54.6371,135.555L 56.7044,135.555L 62.8519,117.515L 64.6726,117.515L 64.6726,116.456L 61.8183,116.456L 55.6979,134.562L 51.0737,121.376L 49.0608,121.376L 44.4365,134.562L 38.3162,116.456L 35.4055,116.456L 35.4055,117.515L 37.2281,117.515L 43.3484,135.555 Z "/>
		<path fill="#667F91" fill-opacity="1" stroke-width="0.2" stroke-linejoin="round" d="M 69.3261,134.518L 67.686,134.518L 67.686,135.555L 82.4674,135.555L 82.4674,134.496L 70.6586,134.496L 70.6586,126.535L 81.7566,126.535L 81.7566,125.476L 70.6586,125.476L 70.6586,117.515L 82.3307,117.515L 82.3307,116.456L 67.686,116.456L 67.686,117.493L 69.3261,117.493L 69.3261,134.518 Z "/>
		<path fill="#667F91" fill-opacity="1" stroke-width="0.2" stroke-linejoin="round" d="M 96.0668,117.515C 97.7231,117.517 98.9225,117.814 99.6652,118.406C 100.408,118.998 100.773,119.871 100.759,121.025C 100.768,122.38 100.379,123.371 99.5917,123.999C 98.8047,124.626 97.5692,124.937 95.8851,124.929L 89.792,124.929L 89.792,117.599C 89.9176,117.595 90.6918,117.581 92.1145,117.557C 93.5372,117.532 94.8547,117.518 96.0668,117.515 Z M 96.5558,134.496C 95.3232,134.494 93.9243,134.49 92.359,134.481C 90.7936,134.473 89.938,134.468 89.792,134.467L 89.792,125.988L 96.0668,125.988C 98.0787,125.998 99.5489,126.38 100.478,127.134C 101.406,127.888 101.865,128.953 101.853,130.328C 101.873,131.634 101.472,132.651 100.651,133.382C 99.8291,134.112 98.4641,134.484 96.5558,134.496 Z M 88.4595,134.467L 86.8194,134.467L 86.8194,135.511C 88.2065,135.513 89.6734,135.52 91.2201,135.533C 92.7668,135.546 94.5272,135.553 96.5015,135.555C 98.8241,135.559 100.522,135.135 101.595,134.285C 102.669,133.435 103.199,132.135 103.185,130.386C 103.008,128.062 102.297,126.628 101.052,126.085C 99.8079,125.543 99.0968,125.319 98.9191,125.414L 98.9191,125.304C 99.039,125.373 99.5643,125.142 100.495,124.611C 101.426,124.08 101.958,122.838 102.092,120.885C 102.124,119.459 101.686,118.366 100.776,117.606C 99.8659,116.846 98.2898,116.463 96.0476,116.456C 94.0976,116.459 92.4143,116.474 90.9977,116.5C 89.5811,116.525 88.1883,116.54 86.8194,116.544L 86.8194,117.788L 88.4595,117.788L 88.4595,134.467 Z "/>
		<path fill="#667F91" fill-opacity="1" stroke-width="0.2" stroke-linejoin="round" d="M 107.319,135.555L 112.102,135.555L 112.102,134.496L 110.292,134.496L 110.292,128.426C 110.278,128.433 111.951,128.441 115.31,128.448C 117.664,128.452 119.506,127.946 120.835,126.932C 122.165,125.917 122.842,124.372 122.865,122.296C 122.879,120.357 122.327,118.899 121.209,117.922C 120.091,116.946 118.326,116.457 115.913,116.456C 113.968,116.458 112.384,116.465 111.162,116.478C 109.94,116.491 108.659,116.498 107.319,116.5L 107.319,117.543L 108.959,117.543L 108.959,134.496L 107.319,134.496L 107.319,135.555 Z M 110.292,117.543C 110.384,117.541 111.029,117.537 112.225,117.529C 113.421,117.521 114.614,117.516 115.803,117.515C 117.829,117.519 119.295,117.928 120.2,118.742C 121.105,119.556 121.549,120.75 121.533,122.324C 121.548,123.847 121.065,125.067 120.083,125.981C 119.102,126.896 117.529,127.365 115.364,127.389C 113.81,127.388 112.58,127.383 111.677,127.375C 110.773,127.367 110.311,127.362 110.292,127.361L 110.292,117.543 Z "/>
		<path fill="#667F91" fill-opacity="1" stroke-width="0.2" stroke-linejoin="round" d="M 140.216,135.555L 143.092,135.555L 143.092,134.496L 141.274,134.496L 134.11,116.456L 132.156,116.456L 124.991,134.496L 123.173,134.496L 123.173,135.555L 125.995,135.555L 128.438,129.268L 137.774,129.268L 140.216,135.555 Z M 133.106,117.515L 137.231,128.209L 128.953,128.209L 133.106,117.515 Z "/>
		<path fill="#667F91" fill-opacity="1" stroke-width="0.2" stroke-linejoin="round" d="M 146.406,135.555L 151.019,135.555L 151.019,134.496L 149.379,134.496L 149.379,117.447L 161.685,135.555L 163.865,135.555L 163.865,117.515L 165.505,117.515L 165.505,116.456L 160.892,116.456L 160.892,117.515L 162.533,117.515L 162.533,134.541L 150.226,116.456L 146.406,116.456L 146.406,117.515L 148.046,117.515L 148.046,134.496L 146.406,134.496L 146.406,135.555 Z "/>
		<path fill="#667F91" fill-opacity="1" stroke-width="0.2" stroke-linejoin="round" d="M 171.553,134.518L 169.913,134.518L 169.913,135.555L 184.694,135.555L 184.694,134.496L 172.885,134.496L 172.885,126.535L 183.983,126.535L 183.983,125.476L 172.885,125.476L 172.885,117.515L 184.557,117.515L 184.557,116.456L 169.913,116.456L 169.913,117.493L 171.553,117.493L 171.553,134.518 Z "/>
		<path fill="#667F91" fill-opacity="1" stroke-width="0.2" stroke-linejoin="round" d="M 189.046,135.555L 203.226,135.555L 203.226,134.496L 192.019,134.496L 192.019,117.515L 193.659,117.515L 193.659,116.456L 189.046,116.456L 189.046,117.515L 190.686,117.515L 190.686,134.518L 189.046,134.518L 189.046,135.555 Z "/>
	</g>
</svg>
