<?xml version="1.0" encoding="utf-8"?>
<!DOCTYPE svg PUBLIC "-//W3C//DTD SVG 1.1//EN" "http://www.w3.org/Graphics/SVG/1.1/DTD/svg11.dtd">
<svg xmlns="http://www.w3.org/2000/svg" xmlns:xlink="http://www.w3.org/1999/xlink" version="1.1" baseProfile="full" width="428" height="164" viewBox="0 0 428.00 164.00" enable-background="new 0 0 428.00 164.00" xml:space="preserve">
	<g>
		<g>
			<path fill="#667F91" fill-opacity="1" stroke-width="0.2" stroke-linejoin="round" d="M 42.4225,116.096C 46.3648,116.096 48.2664,117.446 48.2664,117.446L 48.2664,119.073C 48.2664,119.073 46.6119,117.419 42.3676,117.419C 40.1329,117.419 37.5694,118.384 37.5694,120.975C 37.5694,123.209 38.673,124.283 43.4694,125.358C 47.5221,126.268 49.5622,127.509 49.5622,130.735C 49.5622,133.878 47.0536,135.918 42.4774,135.918C 38.673,135.918 36.2748,134.401 36.2748,134.401L 36.2748,132.692C 36.2748,132.692 38.4522,134.595 42.6421,134.595C 46.2257,134.595 48.1004,133.134 48.1004,130.845C 48.1004,128.529 46.8059,127.592 42.0083,126.517C 37.9556,125.607 36.1089,124.256 36.1089,121.113C 36.1089,117.64 39.2514,116.096 42.4225,116.096 Z "/>
			<path fill="#667F91" fill-opacity="1" stroke-width="0.2" stroke-linejoin="round" d="M 69.6573,134.125C 69.6573,134.125 67.0102,136 63.0679,136C 57.3332,136 53.0048,132.361 53.0048,126.047C 53.0048,120.231 57.2228,116.068 63.2607,116.068C 67.3128,116.068 69.6292,117.998 69.6292,117.998L 69.6292,119.844C 69.6292,119.844 67.6172,117.391 63.2332,117.391C 58.2428,117.391 54.4934,120.838 54.4934,126.047C 54.4934,131.727 58.5741,134.677 63.1234,134.677C 67.3128,134.677 69.6573,132.389 69.6573,132.389L 69.6573,134.125 Z "/>
			<path fill="#667F91" fill-opacity="1" stroke-width="0.2" stroke-linejoin="round" d="M 77.7862,128.143L 86.1954,128.143L 82.0042,117.695M 86.7457,129.467L 77.2627,129.467L 74.781,135.642L 71.9143,135.642L 71.9143,134.346L 73.761,134.346L 81.0391,116.371L 83.0243,116.371L 90.3024,134.346L 92.1491,134.346L 92.1491,135.642L 89.2274,135.642L 86.7457,129.467 Z "/>
			<path fill="#667F91" fill-opacity="1" stroke-width="0.2" stroke-linejoin="round" d="M 98.1812,134.346C 98.1812,134.346 101.242,134.43 103.447,134.43C 109.54,134.43 112.435,131.038 112.435,125.91C 112.435,120.782 109.43,117.612 103.474,117.612C 101.27,117.612 98.1812,117.695 98.1812,117.695M 95.0937,135.642L 95.0937,134.346L 96.7482,134.346L 96.7482,117.695L 95.0937,117.695L 95.0937,116.399C 98.0172,116.399 99.5326,116.288 103.585,116.288C 109.788,116.288 113.923,119.597 113.923,125.828C 113.923,132.058 110.092,135.752 103.337,135.752C 99.2849,135.752 98.0172,135.642 95.0937,135.642 Z "/>
			<path fill="#667F91" fill-opacity="1" stroke-width="0.2" stroke-linejoin="round" d="M 121.308,128.143L 129.718,128.143L 125.526,117.695M 130.268,129.467L 120.785,129.467L 118.303,135.642L 115.437,135.642L 115.437,134.346L 117.283,134.346L 124.561,116.371L 126.547,116.371L 133.825,134.346L 135.671,134.346L 135.671,135.642L 132.75,135.642L 130.268,129.467 Z "/>
		</g>
		<g>
			<path fill="#316AB4" fill-opacity="1" stroke-width="0.2" stroke-linejoin="round" d="M 132.396,104.28L 115.699,104.28C 115.653,103.155 115.576,102.138 115.575,101.121C 115.571,88.7783 115.578,76.4354 115.581,64.0925C 115.581,63.7106 115.595,63.3275 115.581,62.9462C 115.29,55.0793 113.832,53.2198 106.875,52.6305C 102.754,52.2815 98.6035,52.3645 94.4667,52.2675C 93.8895,52.2541 93.3118,52.3194 92.4547,52.3627L 92.4547,104.196L 76.3647,104.196L 76.3647,52.3486C 72.9214,52.3486 69.7369,52.2968 66.5541,52.3627C 63.3446,52.4298 60.1368,52.6042 56.9285,52.7495C 53.481,52.9056 52.9746,53.4706 52.9709,57.3238C 52.9593,71.8672 52.966,86.4107 52.966,100.954L 52.966,104.23L 36.1257,104.23C 36.0836,103.25 36.0024,102.247 36.0019,101.245C 35.9945,82.7783 35.9909,64.3121 36,45.8453C 36.0024,39.9289 36.8535,38.7423 42.0141,38.2701C 64.4372,36.219 86.8945,35.5174 109.37,36.7662C 113.116,36.9749 116.909,37.9236 120.514,39.1535C 127.68,41.5986 131.588,47.4132 131.992,55.8114C 132.374,63.7307 132.326,71.6793 132.383,79.6163C 132.441,87.7345 132.396,95.8533 132.396,104.28 Z "/>
			<path fill="#316AB4" fill-opacity="1" stroke-width="0.2" stroke-linejoin="round" d="M 157.714,65.4517C 166.819,65.4517 175.402,65.4895 183.984,65.384C 184.723,65.3749 185.822,64.6055 186.127,63.8613C 188.302,58.5408 185.299,51.6593 180.261,51.1822C 175.007,50.685 169.681,50.871 164.4,51.1279C 161.365,51.2761 159.164,53.3309 158.57,56.8601C 158.118,59.5432 158.014,62.3013 157.714,65.4517 Z M 200.241,104.614C 196.59,105.007 192.765,105.62 188.925,105.794C 178.637,106.259 168.326,107.09 158.088,105.067C 148.497,103.172 143.746,98.2411 142.044,87.338C 140.239,75.765 140.459,64.087 142.787,52.5939C 144.306,45.0919 148.442,39.9941 155.176,38.2554C 166.61,35.3021 178.122,35.2039 189.558,38.2267C 196.647,40.0996 200.877,45.4292 201.704,53.5639C 202.23,58.744 202.213,64.0675 201.839,69.2714C 201.456,74.6003 199.214,76.5672 194.448,76.716C 190.48,76.8399 186.506,76.7545 182.535,76.7557C 174.437,76.7575 166.339,76.7563 158.282,76.7563C 156.575,85.9623 160.182,91.1442 168.551,91.7573C 179.027,92.5248 189.478,92.2435 200.241,90.7043L 200.241,104.614 Z "/>
			<path fill="#316AB4" fill-opacity="1" stroke-width="0.2" stroke-linejoin="round" d="M 301.616,38.357L 285.824,38.357C 285.334,45.4991 285.028,52.4527 284.341,59.3574C 283.548,67.3286 281.694,75.0527 276.905,81.2047C 271.595,88.027 270.925,87.7324 265.914,81.1326C 261.143,74.8508 259.244,67.1724 258.298,59.2165L 257.085,59.0811C 255.898,58.9493 254.743,58.7962 253.608,58.6461C 251.353,58.3472 249.224,58.0647 247.225,58.0189C 245.313,57.9744 243.326,57.9659 241.234,57.9909C 242.53,67.2664 245.101,76.1661 249.354,84.6296C 253.569,93.0186 259.285,99.766 266.887,104.362C 269.647,106.031 272.291,106.115 275.079,104.501C 282.129,100.421 287.334,94.1387 291.62,86.7849C 298.117,75.6335 300.777,63.1045 301.58,49.9825C 301.816,46.1317 301.616,42.2462 301.616,38.357 Z "/>
			<path fill="#316AB4" fill-opacity="1" stroke-width="0.2" stroke-linejoin="round" d="M 255.382,37.6712C 242.495,35.1284 229.653,36.0155 216.836,38.2282C 211.51,39.1476 210.946,40.0279 210.944,46.0078C 210.937,64.366 210.942,82.7249 210.941,101.084L 210.941,104.231L 228.041,104.231C 228.041,102.932 228.041,101.801 228.041,100.669C 228.041,86.3267 228.03,71.984 228.05,57.6412C 228.055,53.774 228.575,52.9937 231.924,52.8302C 234.82,52.6893 237.72,52.5923 240.62,52.5502C 242.864,52.5173 245.109,52.5142 247.351,52.5661C 250.702,52.6436 254.043,53.2548 257.688,53.6605C 257.688,53.2847 257.685,52.9114 257.684,52.5362C 257.669,48.5927 257.6,44.6815 257.731,40.7807C 257.801,38.6937 257.137,38.0177 255.382,37.6712 Z "/>
			<path fill="#316AB4" fill-opacity="1" stroke-width="0.2" stroke-linejoin="round" d="M 335.348,104.649L 335.348,90.4742C 338.233,90.8134 340.961,91.3558 343.696,91.4155C 353.39,91.6273 363.09,91.8871 372.781,91.684C 376.909,91.598 378.316,89.3273 378.327,85.1874C 378.336,82.0546 376.863,80.2842 374.38,79.7523C 369.247,78.6523 364.056,77.8964 358.92,76.8172C 354.122,75.8087 349.264,74.9309 344.61,73.3355C 338.12,71.1112 334.986,66.0281 334.652,58.4803C 334.086,45.678 338.438,39.6719 350.663,37.433C 363.702,35.0457 376.765,36.1658 389.781,38.1186C 390.107,38.1674 390.417,38.359 390.816,38.5164L 390.816,52.0783C 389.46,52.0014 388.146,52.0374 386.861,51.8373C 376.782,50.2676 366.677,49.835 356.546,51.0051C 352.703,51.4493 351.35,53.0129 351.374,56.5245C 351.398,60.1342 352.401,61.2311 356.315,61.9248C 363.898,63.2681 371.501,64.4877 379.055,66.0184C 381.847,66.5845 384.566,67.7546 387.244,68.8735C 392.432,71.0405 394.465,75.8777 394.826,81.6331C 395.039,85.0232 394.859,88.547 394.269,91.8768C 393.229,97.7444 389.668,101.54 384.761,103.083C 380.082,104.554 375.186,105.895 370.377,105.936C 359.159,106.033 347.935,105.316 336.714,104.916C 336.308,104.902 335.906,104.762 335.348,104.649 Z "/>
			<rect x="309.588" y="57.269" fill="#316AB4" fill-opacity="1" stroke-width="0.2" stroke-linejoin="round" width="16.8288" height="46.943"/>
			<path fill="#316AB4" fill-opacity="1" stroke-width="0.2" stroke-linejoin="round" d="M 317.791,36.4179C 325.887,36.3625 327.287,40.6775 327.287,43.5112C 327.108,50.2067 325.737,51.868 319.821,52.3694C 318.402,52.4896 316.96,52.45 315.539,52.3261C 310.397,51.8765 308.942,50.1933 308.555,44.3891C 308.53,44.0091 308.526,43.6271 308.516,43.2458C 308.516,40.2193 309.974,36.4716 317.791,36.4179 Z "/>
		</g>
	</g>
</svg>
