<?xml version="1.0" encoding="utf-8"?>
<!DOCTYPE svg PUBLIC "-//W3C//DTD SVG 1.1//EN" "http://www.w3.org/Graphics/SVG/1.1/DTD/svg11.dtd">
<svg xmlns="http://www.w3.org/2000/svg" xmlns:xlink="http://www.w3.org/1999/xlink" version="1.1" baseProfile="full" width="24" height="24" viewBox="0 0 24.00 24.00" enable-background="new 0 0 24.00 24.00" xml:space="preserve">
	<g>
		<g>
			<path fill="#FFFFFF" fill-opacity="1" stroke-width="0.2" stroke-linejoin="round" d="M 6.48004,14.1263C 6.48004,14.1996 6.47601,14.2619 6.46814,14.3131L 6.32251,14.52L 3.40564,14.435L 3.37189,14.3131C 3.36395,14.2619 3.35999,14.1996 3.35999,14.1263C 3.35999,14.0496 3.36334,13.9856 3.37,13.9344L 3.51624,13.72L 4.48004,13.72L 4.48004,10.52L 3.65625,11C 3.59625,11.0283 3.54706,11.0458 3.41754,11.0294L 3.37189,10.9106C 3.36395,10.8535 3.35999,10.7733 3.35999,10.67C 3.35999,10.605 3.36127,10.5515 3.36377,10.5094L 3.5025,10.2663L 4.72876,9.49L 4.85376,9.48187C 4.90546,9.48063 4.97247,9.48 5.05499,9.48C 5.15582,9.48 5.2373,9.48187 5.29938,9.48563C 5.36145,9.48938 5.40851,9.49583 5.52002,9.6L 5.52002,13.72L 6.44,13.8106L 6.47064,13.9344C 6.47687,13.9856 6.48004,14.0496 6.48004,14.1263 Z "/>
			<path fill="#FFFFFF" fill-opacity="1" stroke-width="0.2" stroke-linejoin="round" d="M 10.72,11.98C 10.72,12.3817 10.6875,12.7442 10.6225,13.0675C 10.5575,13.3908 10.4517,13.6662 10.305,13.8937C 10.1583,14.1213 9.96771,14.2958 9.73309,14.4175C 9.49854,14.5392 9.21124,14.6 8.87128,14.6C 8.52625,14.6 8.24084,14.541 8.01501,14.4231C 7.78918,14.3052 7.61023,14.1358 7.47809,13.915C 7.34601,13.6942 7.25336,13.424 7.20001,13.1044C 7.14667,12.7848 7.12,12.4233 7.12,12.02C 7.12,11.6208 7.15314,11.259 7.21936,10.9344C 7.28564,10.6098 7.39209,10.3338 7.53876,10.1063C 7.68542,9.87875 7.87604,9.70417 8.11066,9.5825C 8.34521,9.46083 8.63129,9.4 8.96875,9.4C 9.31378,9.4 9.59979,9.45896 9.82684,9.57687C 10.054,9.69479 10.2336,9.86417 10.3657,10.085C 10.4977,10.3058 10.5898,10.576 10.6419,10.8956C 10.694,11.2152 10.72,11.5767 10.72,11.98 Z M 9.67999,12.0337C 9.67999,11.7937 9.67352,11.5823 9.66064,11.3994C 9.64771,11.2165 9.62793,11.0573 9.60126,10.9219C 9.57458,10.7865 9.54126,10.6719 9.50128,10.5781C 9.46124,10.4844 9.41315,10.4096 9.35687,10.3537C 9.3006,10.2979 9.23645,10.2583 9.16437,10.235C 9.09229,10.2117 9.01294,10.2 8.92627,10.2C 8.7746,10.2 8.64935,10.2371 8.5506,10.3112C 8.45184,10.3854 8.37354,10.4967 8.31561,10.645C 8.25775,10.7933 8.21729,10.9779 8.1944,11.1987C 8.17145,11.4196 8.15997,11.6771 8.15997,11.9712C 8.15997,12.3296 8.17413,12.6265 8.20251,12.8619C 8.23083,13.0973 8.27496,13.2846 8.33502,13.4237C 8.39502,13.5629 8.47247,13.6604 8.5675,13.7162C 8.66254,13.7721 8.77667,13.8 8.90997,13.8C 9.01001,13.8 9.09857,13.7837 9.1756,13.7513C 9.25275,13.7188 9.32025,13.67 9.37811,13.605C 9.43604,13.54 9.48419,13.4581 9.52252,13.3594C 9.56085,13.2606 9.5921,13.1463 9.61627,13.0163C 9.64044,12.8862 9.6571,12.7394 9.66626,12.5756C 9.67542,12.4119 9.67999,12.2313 9.67999,12.0337 Z "/>
			<path fill="#FFFFFF" fill-opacity="1" stroke-width="0.2" stroke-linejoin="round" d="M 14.8,11.98C 14.8,12.3817 14.7675,12.7442 14.7025,13.0675C 14.6375,13.3908 14.5317,13.6662 14.385,13.8937C 14.2383,14.1213 14.0477,14.2958 13.8131,14.4175C 13.5786,14.5392 13.2913,14.6 12.9512,14.6C 12.6063,14.6 12.3209,14.541 12.095,14.4231C 11.8692,14.3052 11.6902,14.1358 11.5581,13.915C 11.426,13.6942 11.3333,13.424 11.28,13.1044C 11.2267,12.7848 11.2,12.4233 11.2,12.02C 11.2,11.6208 11.2331,11.259 11.2994,10.9344C 11.3657,10.6098 11.4721,10.3338 11.6187,10.1063C 11.7654,9.87875 11.9561,9.70417 12.1906,9.5825C 12.4252,9.46083 12.7112,9.4 13.0488,9.4C 13.3937,9.4 13.6798,9.45896 13.9069,9.57687C 14.134,9.69479 14.3135,9.86417 14.4456,10.085C 14.5777,10.3058 14.6698,10.576 14.7219,10.8956C 14.774,11.2152 14.8,11.5767 14.8,11.98 Z M 13.76,12.0337C 13.76,11.7937 13.7535,11.5823 13.7407,11.3994C 13.7277,11.2165 13.7079,11.0573 13.6812,10.9219C 13.6546,10.7865 13.6213,10.6719 13.5812,10.5781C 13.5413,10.4844 13.4931,10.4096 13.4369,10.3537C 13.3806,10.2979 13.3165,10.2583 13.2444,10.235C 13.1723,10.2117 13.093,10.2 13.0063,10.2C 12.8546,10.2 12.7294,10.2371 12.6306,10.3112C 12.5319,10.3854 12.4536,10.4967 12.3956,10.645C 12.3377,10.7933 12.2973,10.9779 12.2744,11.1987C 12.2515,11.4196 12.24,11.6771 12.24,11.9712C 12.24,12.3296 12.2542,12.6265 12.2825,12.8619C 12.3109,13.0973 12.355,13.2846 12.415,13.4237C 12.475,13.5629 12.5525,13.6604 12.6475,13.7162C 12.7425,13.7721 12.8566,13.8 12.99,13.8C 13.09,13.8 13.1785,13.7837 13.2556,13.7513C 13.3327,13.7188 13.4002,13.67 13.4581,13.605C 13.5161,13.54 13.5641,13.4581 13.6025,13.3594C 13.6408,13.2606 13.6721,13.1463 13.6962,13.0163C 13.7204,12.8862 13.7371,12.7394 13.7463,12.5756C 13.7554,12.4119 13.76,12.2313 13.76,12.0337 Z "/>
			<path fill="#FFFFFF" fill-opacity="1" stroke-width="0.2" stroke-linejoin="round" d="M 17.52,10.6575C 17.52,10.8683 17.4975,11.0583 17.4525,11.2275C 17.4075,11.3967 17.3371,11.541 17.2413,11.6606C 17.1454,11.7802 17.0234,11.8733 16.875,11.94C 16.7267,12.0067 16.5491,12.04 16.3425,12.04C 16.1234,12.04 15.94,12.0067 15.7925,11.94C 15.645,11.8733 15.5275,11.7808 15.44,11.6625C 15.3525,11.5442 15.2906,11.4025 15.2544,11.2375C 15.2181,11.0725 15.2,10.89 15.2,10.69C 15.2,10.49 15.2219,10.3069 15.2656,10.1406C 15.3094,9.97438 15.3785,9.83 15.4731,9.7075C 15.5677,9.585 15.6891,9.48979 15.8375,9.42188C 15.9858,9.35396 16.1646,9.32 16.3737,9.32C 16.6038,9.32 16.7929,9.35604 16.9412,9.42813C 17.0896,9.50021 17.2062,9.5975 17.2913,9.72C 17.3763,9.8425 17.4356,9.98479 17.4694,10.1469C 17.5031,10.309 17.52,10.4792 17.52,10.6575 Z M 16.72,10.6875C 16.72,10.5408 16.713,10.4162 16.6988,10.3138C 16.6846,10.2112 16.6633,10.1279 16.635,10.0638C 16.6067,9.99958 16.5688,9.95292 16.5212,9.92375C 16.4738,9.89458 16.4183,9.88021 16.355,9.88021C 16.2958,9.88021 16.2437,9.89396 16.1988,9.92188C 16.1537,9.94979 16.1165,9.99521 16.0869,10.0581C 16.0573,10.121 16.0354,10.2025 16.0212,10.3025C 16.0071,10.4025 16,10.5242 16,10.6675C 16,10.8333 16.0084,10.969 16.025,11.0744C 16.0417,11.1798 16.0652,11.2625 16.0956,11.3225C 16.126,11.3825 16.1638,11.4238 16.2087,11.4462C 16.2537,11.4688 16.3058,11.48 16.365,11.48C 16.4341,11.48 16.491,11.4646 16.5356,11.4338C 16.5802,11.4029 16.6163,11.3556 16.6437,11.2919C 16.6713,11.2281 16.6909,11.1463 16.7025,11.0462C 16.7142,10.9462 16.72,10.8267 16.72,10.6875 Z M 20.64,13.2175C 20.64,13.4283 20.6175,13.6183 20.5725,13.7875C 20.5275,13.9567 20.4571,14.101 20.3613,14.2206C 20.2654,14.3402 20.1434,14.4333 19.995,14.5C 19.8467,14.5667 19.6692,14.6 19.4625,14.6C 19.2433,14.6 19.06,14.5667 18.9125,14.5C 18.765,14.4333 18.6475,14.3408 18.56,14.2225C 18.4725,14.1042 18.4106,13.9625 18.3744,13.7975C 18.3381,13.6325 18.32,13.45 18.32,13.25C 18.32,13.05 18.3419,12.8669 18.3856,12.7006C 18.4294,12.5344 18.4985,12.39 18.5931,12.2675C 18.6877,12.145 18.8091,12.0498 18.9575,11.9819C 19.1058,11.914 19.2846,11.8802 19.4937,11.8802C 19.7238,11.8802 19.9129,11.916 20.0612,11.9881C 20.2096,12.0602 20.3262,12.1575 20.4113,12.28C 20.4963,12.4025 20.5556,12.5448 20.5894,12.7069C 20.6231,12.869 20.64,13.0392 20.64,13.2175 Z M 19.84,13.2475C 19.84,13.1008 19.8329,12.9762 19.8188,12.8737C 19.8046,12.7713 19.7833,12.6879 19.755,12.6237C 19.7267,12.5596 19.6888,12.5129 19.6412,12.4837C 19.5938,12.4546 19.5383,12.44 19.475,12.44C 19.4158,12.44 19.3638,12.454 19.3188,12.4819C 19.2737,12.5098 19.2365,12.5552 19.2068,12.6181C 19.1773,12.681 19.1555,12.7625 19.1412,12.8625C 19.1271,12.9625 19.12,13.0842 19.12,13.2275C 19.12,13.3933 19.1284,13.529 19.145,13.6344C 19.1617,13.7398 19.1852,13.8225 19.2156,13.8825C 19.246,13.9425 19.2838,13.9837 19.3287,14.0063C 19.3737,14.0287 19.4258,14.04 19.485,14.04C 19.5541,14.04 19.611,14.0246 19.6556,13.9937C 19.7002,13.9629 19.7363,13.9156 19.7637,13.8519C 19.7913,13.7881 19.8109,13.7062 19.8225,13.6062C 19.8342,13.5063 19.84,13.3867 19.84,13.2475 Z M 16.3919,14.6444C 16.3548,14.6573 16.3096,14.6665 16.2563,14.6719C 16.2029,14.6773 16.1375,14.68 16.06,14.68C 15.9717,14.68 15.9017,14.6748 15.85,14.6644L 15.76,14.4438L 19.5256,9.35563C 19.5644,9.34271 19.6104,9.33354 19.6638,9.32813C 19.7171,9.32271 19.7825,9.32 19.86,9.32C 19.9483,9.32 20.0184,9.32521 20.07,9.33562L 20.16,9.55625L 16.56,14.5187 Z "/>
		</g>
		<path fill="none" stroke-width="2" stroke-linecap="round" stroke-linejoin="round" stroke="#FFFFFF" stroke-opacity="1" d="M 3.9986,7.52012L 3.9986,5.99999L 19.9986,5.99999L 19.9986,7.52012"/>
		<path fill="none" stroke-width="2" stroke-linecap="round" stroke-linejoin="round" stroke="#FFFFFF" stroke-opacity="1" d="M 19.9986,16.5196L 19.9986,18L 3.9986,18L 3.9986,16.5196"/>
	</g>
</svg>
