<?xml version="1.0" encoding="utf-8"?>
<!DOCTYPE svg PUBLIC "-//W3C//DTD SVG 1.1//EN" "http://www.w3.org/Graphics/SVG/1.1/DTD/svg11.dtd">
<svg xmlns="http://www.w3.org/2000/svg" xmlns:xlink="http://www.w3.org/1999/xlink" version="1.1" baseProfile="full" width="24" height="24" viewBox="0 0 24.00 24.00" enable-background="new 0 0 24.00 24.00" xml:space="preserve">
	<path fill="none" stroke-width="1.8" stroke-linecap="round" stroke-linejoin="round" stroke="#FFFFFF" stroke-opacity="1" d="M 2.99994,14L 7.99994,16L 11.9999,11L 15.9999,14L 20.9999,7.99997"/>
	<g>
		<path fill="none" stroke-width="1.2" stroke-linecap="round" stroke-linejoin="miter" stroke="#FFFFFF" stroke-opacity="1" d="M 1.5,12.5L 4.5,12.5L 4.5,15.5L 2.99915,15.5001L 1.5,15.5L 1.5,12.5 Z "/>
		<path fill="none" stroke-width="1.2" stroke-linecap="round" stroke-linejoin="miter" stroke="#FFFFFF" stroke-opacity="1" d="M 6.5,14.5L 9.5,14.5L 9.5,17.5L 7.99988,17.5L 6.5,17.5L 6.5,14.5 Z "/>
		<path fill="none" stroke-width="1.2" stroke-linecap="round" stroke-linejoin="miter" stroke="#FFFFFF" stroke-opacity="1" d="M 10.5,9.5L 13.5,9.5L 13.5,12.5L 11.9998,12.5L 10.5,12.5L 10.5,9.5 Z "/>
		<path fill="none" stroke-width="1.2" stroke-linecap="round" stroke-linejoin="miter" stroke="#FFFFFF" stroke-opacity="1" d="M 14.5,12.5L 15.9999,12.5L 17.5,12.5L 17.5,15.5L 14.5,15.5L 14.5,12.5 Z "/>
		<path fill="none" stroke-width="1.2" stroke-linecap="round" stroke-linejoin="miter" stroke="#FFFFFF" stroke-opacity="1" d="M 19.5,6.5L 20.9998,6.50001L 22.5,6.5L 22.5,9.5L 19.5,9.5L 19.5,6.5 Z "/>
	</g>
</svg>
