<?xml version="1.0" encoding="utf-8"?>
<!DOCTYPE svg PUBLIC "-//W3C//DTD SVG 1.1//EN" "http://www.w3.org/Graphics/SVG/1.1/DTD/svg11.dtd">
<svg xmlns="http://www.w3.org/2000/svg" xmlns:xlink="http://www.w3.org/1999/xlink" version="1.1" baseProfile="full" width="24" height="24" viewBox="0 0 24.00 24.00" enable-background="new 0 0 24.00 24.00" xml:space="preserve">
	<g>
		<path fill="none" stroke-width="1.2" stroke-linejoin="round" stroke="#FFFFFF" stroke-opacity="1" d="M 12.0002,8.24998C 14.0713,8.24998 15.7502,9.9289 15.7502,12C 15.7502,14.071 14.0713,15.75 12.0002,15.75C 9.9292,15.75 8.25024,14.071 8.25024,12C 8.25024,9.9289 9.9292,8.24998 12.0002,8.24998 Z "/>
		<path fill="#FFFFFF" fill-opacity="1" stroke-linejoin="round" stroke="#FFFFFF" stroke-opacity="1" d="M 18.8499,12L 18.7549,13.1432L 19.9174,13.5209L 19.2993,15.4231L 18.1373,15.0455C 17.7939,15.7361 17.3375,16.3606 16.7921,16.8947L 17.5112,17.8844L 15.8932,19.0599L 15.1749,18.0713C 14.5072,18.4212 13.7747,18.6642 13,18.7775L 13,20L 11,20L 11,18.7775C 10.2253,18.6643 9.49274,18.4213 8.82501,18.0714L 8.10681,19.0599L 6.48871,17.8844L 7.20776,16.8947C 6.66241,16.3607 6.20593,15.7362 5.86255,15.0457L 4.70056,15.4232L 4.08246,13.5211L 5.24493,13.1434L 5.1499,12L 5.24493,10.8565L 4.08246,10.4788L 4.70056,8.57664L 5.86261,8.95423C 6.20593,8.26373 6.66241,7.63937 7.2077,7.10541L 6.48865,6.11566L 8.10663,4.94012L 8.82489,5.92869C 9.49268,5.57876 10.2253,5.33576 11,5.22245L 11,4L 13,4L 13,5.2225C 13.7747,5.33582 14.5073,5.5788 15.175,5.92872L 15.8932,4.9401L 17.5114,6.11564L 16.7922,7.10547C 17.3375,7.63947 17.7939,8.26388 18.1373,8.95443L 19.2993,8.57687L 19.9174,10.479L 18.7549,10.8567L 18.8499,12 Z M 12,5.74998C 8.54834,5.74998 5.75,8.54821 5.75,12C 5.75,15.4518 8.54834,18.25 12,18.25C 15.4518,18.25 18.25,15.4518 18.25,12C 18.25,8.54821 15.4518,5.74998 12,5.74998 Z "/>
	</g>
</svg>
