<?xml version="1.0" encoding="utf-8"?>
<!DOCTYPE svg PUBLIC "-//W3C//DTD SVG 1.1//EN" "http://www.w3.org/Graphics/SVG/1.1/DTD/svg11.dtd">
<svg xmlns="http://www.w3.org/2000/svg" xmlns:xlink="http://www.w3.org/1999/xlink" version="1.1" baseProfile="full" width="24" height="24" viewBox="0 0 24.00 24.00" enable-background="new 0 0 24.00 24.00" xml:space="preserve">
	<g>
		<path fill="#FFFFFF" fill-opacity="1" stroke-width="0.2" stroke-linecap="round" stroke-linejoin="round" stroke="#FFFFFF" stroke-opacity="1" d="M 0,13L 9.99997,13L 10,13L 10,15L 0,15L 0,13 Z "/>
		<path fill="#FFFFFF" fill-opacity="1" stroke-width="2" stroke-linecap="round" stroke-linejoin="round" stroke="#FFFFFF" stroke-opacity="1" d="M 8.00009,12L 10.0001,14L 8.00003,16"/>
		<path fill="#FFFFFF" fill-opacity="1" stroke-width="2" stroke-linecap="round" stroke-linejoin="round" stroke="#FFFFFF" stroke-opacity="1" d="M 14.0001,13L 16,13L 16.0001,13L 16.0001,15L 14.0001,15L 14.0001,13 Z "/>
		<line fill="none" stroke-width="1.8" stroke-linecap="round" stroke-linejoin="round" stroke="#FFFFFF" stroke-opacity="1" x1="7.50003" y1="4.00004" x2="7.50003" y2="6.00004"/>
		<line fill="none" stroke-width="1.8" stroke-linecap="round" stroke-linejoin="round" stroke="#FFFFFF" stroke-opacity="1" x1="16.5" y1="4.00004" x2="16.5" y2="6.00004"/>
		<path fill="none" stroke-width="1.8" stroke-linecap="round" stroke-linejoin="round" stroke="#FFFFFF" stroke-opacity="1" d="M 3.99973,8.50008C 3.99979,11.5001 3.99988,14.5001 3.99991,16.3334C 3.99997,18.1667 3.99997,18.8334 4.29623,19.1667C 4.59253,19.5 5.18515,19.5 7.55551,19.5C 9.92587,19.5 14.074,19.5 16.4443,19.5C 18.8147,19.5 19.4073,19.5 19.7036,19.1667C 19.9999,18.8334 19.9999,18.1667 19.9998,16.3334C 19.9998,14.5001 19.9998,11.5001 19.9997,8.50008"/>
		<path fill="#FFFFFF" fill-opacity="1" stroke-width="1.8" stroke-linecap="round" stroke-linejoin="round" stroke="#FFFFFF" stroke-opacity="1" d="M 4.16653,5.16673C 4.33316,5.00006 4.66641,5.00007 4.99973,5.00008C 4.99973,6.00008 4.99973,7.00008 5.41638,7.58341C 5.83304,8.16675 6.66638,8.33341 7.49973,8.33341C 8.33304,8.33341 9.16638,8.16675 9.58304,7.58341C 9.99973,7.00008 9.99973,6.00008 9.99973,5.00008L 13.9998,5.00006C 13.9998,6.00006 13.9998,7.00006 14.4165,7.5834C 14.8331,8.16673 15.6665,8.3334 16.4998,8.3334C 17.3331,8.3334 18.1665,8.16673 18.5831,7.5834C 18.9998,7.00006 18.9998,6.00006 18.9998,5.00006C 19.3332,5.00006 19.6665,5.00006 19.8332,5.16673C 19.9999,5.3334 19.9999,5.66673 19.9994,6.25011C 19.9989,6.8335 19.998,7.66696 19.997,8.5004L 3.99704,8.5004C 3.99796,7.66696 3.99893,6.8335 3.99939,6.25011C 3.99988,5.66673 3.99988,5.3334 4.16653,5.16673 Z "/>
	</g>
</svg>
