<?xml version="1.0" encoding="utf-8"?>
<!DOCTYPE svg PUBLIC "-//W3C//DTD SVG 1.1//EN" "http://www.w3.org/Graphics/SVG/1.1/DTD/svg11.dtd">
<svg xmlns="http://www.w3.org/2000/svg" xmlns:xlink="http://www.w3.org/1999/xlink" version="1.1" baseProfile="full" width="24" height="24" viewBox="0 0 24.00 24.00" enable-background="new 0 0 24.00 24.00" xml:space="preserve">
	<g>
		<g>
			<line fill="none" stroke-width="2" stroke-linecap="round" stroke-linejoin="round" stroke="#FFFFFF" stroke-opacity="1" x1="8.00006" y1="4" x2="3" y2="9"/>
			<line fill="none" stroke-width="2" stroke-linecap="round" stroke-linejoin="round" stroke="#FFFFFF" stroke-opacity="1" x1="3" y1="4" x2="8.00006" y2="9"/>
		</g>
		<g>
			<path fill="none" stroke-width="1.6" stroke-linecap="round" stroke-linejoin="round" stroke="#FFFFFF" stroke-opacity="1" d="M 4.00006,20C 5.33337,19.6667 6.66669,19.3333 8,16.8333C 9.33331,14.3333 10.6667,9.66667 12.3334,7.33334C 14.0001,5 16.0001,5 17.3334,5.5C 18.6667,6 19.3333,7 20,8"/>
			<ellipse fill="#FFFFFF" fill-opacity="1" stroke-width="0.2" stroke-linejoin="round" cx="9.00009" cy="14.5" rx="1.49997" ry="1.5"/>
			<path fill="#FFFFFF" fill-opacity="1" stroke-width="0.2" stroke-linejoin="round" d="M 12.5001,12.5L 21.4998,12.5C 21.7759,12.5 21.9998,12.7239 21.9998,13L 21.9998,16C 21.9998,16.2762 21.7759,16.5 21.4998,16.5L 12.5001,16.5C 12.2239,16.5 12.0001,16.2761 12.0001,16L 12.0001,13C 12.0001,12.7239 12.2239,12.5 12.5001,12.5 Z M 12.9999,13.5L 12.9999,15.5L 14.9999,15.5L 14.9999,13.5L 12.9999,13.5 Z M 16,13.5L 16,15.5L 20.9998,15.5L 20.9998,13.5L 16,13.5 Z "/>
		</g>
	</g>
</svg>
