<?xml version="1.0" encoding="UTF-8" standalone="no"?>
<!-- Created with Inkscape (http://www.inkscape.org/) -->

<svg
   xmlns:dc="http://purl.org/dc/elements/1.1/"
   xmlns:cc="http://creativecommons.org/ns#"
   xmlns:rdf="http://www.w3.org/1999/02/22-rdf-syntax-ns#"
   xmlns:svg="http://www.w3.org/2000/svg"
   xmlns="http://www.w3.org/2000/svg"
   xmlns:sodipodi="http://sodipodi.sourceforge.net/DTD/sodipodi-0.dtd"
   xmlns:inkscape="http://www.inkscape.org/namespaces/inkscape"
   id="svg3366"
   version="1.1"
   inkscape:version="0.91 r13725"
   xml:space="preserve"
   width="112.9375"
   height="125.0125"
   viewBox="0 0 112.9375 125.0125"
   sodipodi:docname="alarm_ack_reset.svg"><metadata
     id="metadata3372"><rdf:RDF><cc:Work
         rdf:about=""><dc:format>image/svg+xml</dc:format><dc:type
           rdf:resource="http://purl.org/dc/dcmitype/StillImage" /><dc:title></dc:title></cc:Work></rdf:RDF></metadata><defs
     id="defs3370"><clipPath
       clipPathUnits="userSpaceOnUse"
       id="clipPath3380"><path
         d="m 0,100.01 90.35,0 L 90.35,0 0,0 0,100.01 Z"
         id="path3382"
         inkscape:connector-curvature="0" /></clipPath></defs><sodipodi:namedview
     pagecolor="#ffffff"
     bordercolor="#666666"
     borderopacity="1"
     objecttolerance="10"
     gridtolerance="10"
     guidetolerance="10"
     inkscape:pageopacity="0"
     inkscape:pageshadow="2"
     inkscape:window-width="1600"
     inkscape:window-height="837"
     id="namedview3368"
     showgrid="false"
     inkscape:zoom="1.8878113"
     inkscape:cx="56.46875"
     inkscape:cy="62.506248"
     inkscape:window-x="-8"
     inkscape:window-y="-8"
     inkscape:window-maximized="1"
     inkscape:current-layer="g3374" /><g
     id="g3374"
     inkscape:groupmode="layer"
     inkscape:label="alarm_ack_reset"
     transform="matrix(1.25,0,0,-1.25,0,125.0125)"><g
       id="g3376"><g
         id="g3378"
         clip-path="url(#clipPath3380)"><g
           id="g3384"
           transform="translate(25.82,14.09)"><path
             d="m 0,0 c 0.187,-7.962 6.794,-14.264 14.755,-14.077 3.925,0.093 7.643,1.782 10.295,4.677 -1.969,2.823 -3.331,6.024 -4,9.4 L 0,0 Z"
             style="fill:#f7941d;fill-opacity:1;fill-rule:nonzero;stroke:none"
             id="path3386"
             inkscape:connector-curvature="0" /></g><g
           id="g3388"
           transform="translate(40.25,86.01)"><path
             d="M 0,0 C -2.209,0 -4,1.791 -4,4 -4,6.209 -2.209,8 0,8 2.209,8 4,6.209 4,4 4,1.791 2.209,0 0,0 m 26.34,-42.46 c -2.37,5.23 -4.09,12.21 -4.09,21.46 -0.001,0.618 -0.082,1.233 -0.24,1.83 -0.748,5.1 -3.248,9.781 -7.07,13.24 -0.57,0.63 -4.9,5.56 -4.9,9.74 0.014,0.116 0.014,0.234 0,0.35 C 9.996,9.683 5.483,14.124 -0.04,14.08 -5.563,14.036 -10.004,9.523 -9.96,4 l 0,-0.44 c -0.17,-4 -4.41,-8.87 -5,-9.49 -3.824,-3.468 -6.32,-8.161 -7.06,-13.27 -0.153,-0.588 -0.23,-1.193 -0.23,-1.8 0,-24 -11.58,-32.78 -16.19,-35.31 -1.043,-0.591 -1.722,-1.664 -1.81,-2.86 l 0,-4.75 c 0,-1.105 0.895,-2 2,-2 l 44.38,0 c 0.5,11.553 8.858,21.255 20.21,23.46"
             style="fill:#f7941d;fill-opacity:1;fill-rule:nonzero;stroke:none"
             id="path3390"
             inkscape:connector-curvature="0" /></g><g
           id="g3392"
           transform="translate(81.35,23.16)"><path
             d="m 0,0 -11.7,-11.69 c -0.386,-0.368 -0.994,-0.368 -1.38,0 l -0.06,0 -6.86,6.73 c -0.388,0.39 -0.388,1.02 0,1.41 l 1.95,2 c 0.39,0.388 1.02,0.388 1.41,0 l 4.21,-4.13 9,9 c 0.39,0.388 1.02,0.388 1.41,0 l 2,-2 C 0.317,0.948 0.326,0.383 0,0 m -10,14.85 c -10.493,0 -19,-8.507 -19,-19 0,-10.493 8.507,-19 19,-19 10.493,0 19,8.507 19,19 0,10.493 -8.507,19 -19,19"
             style="fill:#f7941d;fill-opacity:1;fill-rule:nonzero;stroke:none"
             id="path3394"
             inkscape:connector-curvature="0" /></g></g></g></g></svg>