<?xml version="1.0" encoding="UTF-8" standalone="no"?>
<!-- Created with Inkscape (http://www.inkscape.org/) -->

<svg
   xmlns:dc="http://purl.org/dc/elements/1.1/"
   xmlns:cc="http://creativecommons.org/ns#"
   xmlns:rdf="http://www.w3.org/1999/02/22-rdf-syntax-ns#"
   xmlns:svg="http://www.w3.org/2000/svg"
   xmlns="http://www.w3.org/2000/svg"
   xmlns:sodipodi="http://sodipodi.sourceforge.net/DTD/sodipodi-0.dtd"
   xmlns:inkscape="http://www.inkscape.org/namespaces/inkscape"
   id="svg3396"
   version="1.1"
   inkscape:version="0.91 r13725"
   xml:space="preserve"
   width="100.925"
   height="125.3875"
   viewBox="0 0 100.925 125.3875"
   sodipodi:docname="alarm_new.svg"><metadata
     id="metadata3402"><rdf:RDF><cc:Work
         rdf:about=""><dc:format>image/svg+xml</dc:format><dc:type
           rdf:resource="http://purl.org/dc/dcmitype/StillImage" /><dc:title></dc:title></cc:Work></rdf:RDF></metadata><defs
     id="defs3400"><clipPath
       clipPathUnits="userSpaceOnUse"
       id="clipPath3410"><path
         d="m 0,100.31 80.74,0 L 80.74,0 0,0 0,100.31 Z"
         id="path3412"
         inkscape:connector-curvature="0" /></clipPath></defs><sodipodi:namedview
     pagecolor="#ffffff"
     bordercolor="#666666"
     borderopacity="1"
     objecttolerance="10"
     gridtolerance="10"
     guidetolerance="10"
     inkscape:pageopacity="0"
     inkscape:pageshadow="2"
     inkscape:window-width="1600"
     inkscape:window-height="837"
     id="namedview3398"
     showgrid="false"
     inkscape:zoom="1.8821653"
     inkscape:cx="50.462502"
     inkscape:cy="62.693748"
     inkscape:window-x="-8"
     inkscape:window-y="-8"
     inkscape:window-maximized="1"
     inkscape:current-layer="g3404" /><g
     id="g3404"
     inkscape:groupmode="layer"
     inkscape:label="alarm_new"
     transform="matrix(1.25,0,0,-1.25,0,125.3875)"><g
       id="g3406"><g
         id="g3408"
         clip-path="url(#clipPath3410)"><g
           id="g3414"
           transform="translate(40.37,86.31)"><path
             d="M 0,0 C -2.209,0 -4,1.791 -4,4 -4,6.209 -2.209,8 0,8 2.209,8 4,6.209 4,4 4,1.791 2.209,0 0,0 m 38.56,-56.52 c -4.62,2.52 -16.24,11.31 -16.24,35.42 -0.001,0.621 -0.081,1.24 -0.24,1.84 -0.757,5.11 -3.267,9.797 -7.1,13.26 -0.58,0.64 -4.92,5.58 -4.92,9.76 0.014,0.116 0.014,0.234 0,0.35 C 10.03,9.658 5.508,14.13 -0.04,14.1 -5.588,14.07 -10.06,9.548 -10.03,4 l 0,-0.44 c -0.17,-4 -4.42,-8.9 -5,-9.52 -3.831,-3.491 -6.324,-8.208 -7.05,-13.34 -0.157,-0.591 -0.238,-1.199 -0.24,-1.81 0,-24.1 -11.62,-32.89 -16.24,-35.41 -1.042,-0.593 -1.72,-1.665 -1.81,-2.86 l 0,-4.77 c 0,-1.105 0.895,-2 2,-2 l 76.73,0 c 1.105,0 2,0.895 2,2 l 0,4.77 c -0.087,1.193 -0.762,2.265 -1.8,2.86"
             style="fill:#27aae1;fill-opacity:1;fill-rule:nonzero;stroke:none"
             id="path3416"
             inkscape:connector-curvature="0" /></g><g
           id="g3418"
           transform="translate(40.37,0)"><path
             d="m 0,0 c 7.862,0.003 14.285,6.28 14.47,14.14 l -28.94,0 C -14.28,6.282 -7.86,0.009 0,0"
             style="fill:#27aae1;fill-opacity:1;fill-rule:nonzero;stroke:none"
             id="path3420"
             inkscape:connector-curvature="0" /></g></g></g></g></svg>