<?xml version="1.0" encoding="UTF-8" standalone="no"?>
<!-- Created with Inkscape (http://www.inkscape.org/) -->

<svg
   xmlns:dc="http://purl.org/dc/elements/1.1/"
   xmlns:cc="http://creativecommons.org/ns#"
   xmlns:rdf="http://www.w3.org/1999/02/22-rdf-syntax-ns#"
   xmlns:svg="http://www.w3.org/2000/svg"
   xmlns="http://www.w3.org/2000/svg"
   xmlns:sodipodi="http://sodipodi.sourceforge.net/DTD/sodipodi-0.dtd"
   xmlns:inkscape="http://www.inkscape.org/namespaces/inkscape"
   id="svg4016"
   version="1.1"
   inkscape:version="0.92.2 (5c3e80d, 2017-08-06)"
   xml:space="preserve"
   width="156.1729"
   height="156.1729"
   viewBox="0 0 156.17289 156.1729"
   sodipodi:docname="gadget_tpg.svg"><metadata
     id="metadata4022"><rdf:RDF><cc:Work
         rdf:about=""><dc:format>image/svg+xml</dc:format><dc:type
           rdf:resource="http://purl.org/dc/dcmitype/StillImage" /><dc:title /></cc:Work></rdf:RDF></metadata><defs
     id="defs4020"><clipPath
       clipPathUnits="userSpaceOnUse"
       id="clipPath4030"><path
         d="M 0,90.82 H 107.09 V 0 H 0 Z"
         id="path4032"
         inkscape:connector-curvature="0" /></clipPath></defs><sodipodi:namedview
     objecttolerance="10"
     gridtolerance="10"
     guidetolerance="10"
     inkscape:pageopacity="0"
     inkscape:pageshadow="2"
     inkscape:window-width="1920"
     inkscape:window-height="1017"
     id="namedview4018"
     showgrid="true"
     inkscape:zoom="2.9399198"
     inkscape:cx="-55.97504"
     inkscape:cy="50.556596"
     inkscape:window-x="1912"
     inkscape:window-y="-8"
     inkscape:window-maximized="1"
     inkscape:current-layer="layer2" /><g
     inkscape:groupmode="layer"
     id="layer2"
     inkscape:label="background"
     style="display:inline"
     transform="translate(0,40.603485)"><rect
       id="rect4588-0"
       width="124.93832"
       height="124.93832"
       x="0"
       y="-123.30279"
       style="display:inline;opacity:0.96300001;fill:none;fill-opacity:1;stroke-width:0.80000001;stroke:none;fill-rule:nonzero"
       transform="matrix(1.25,0,0,1.25,0,113.525)" /></g><g
     id="g4024"
     inkscape:groupmode="layer"
     inkscape:label="t2"
     transform="matrix(1.25,0,0,-1.25,0,154.12848)"><g
       id="g4026"
       transform="translate(8.921362,15.42363)"><g
         id="g4028"
         clip-path="url(#clipPath4030)"><g
           id="g4034"
           transform="translate(106.72,33.72)"><path
             d="m 0,0 -20.72,0.45 c 0,0 3.9,-3.6 5.7,-11.69 1.8,-8.09 0.3,-9.59 -4.5,-10.79 -1.74,-0.44 -52.46,-4.8 -52.46,-4.8 l -9,47.06 68.34,3.6 5.92,-20.73 h 5.4 c 0,0 -6.02,20.7 -8.58,32 -2.34,10.3 -8.09,9.89 -8.09,9.89 h -3.22 c -0.231,-1.92 -0.565,-3.826 -1,-5.71 1.559,-0.924 2.508,-2.608 2.49,-4.42 -0.1,-2.94 -3.09,-5.22 -6.67,-5.1 -3.58,0.12 -6.4,2.61 -6.3,5.56 0.142,1.87 1.292,3.514 3,4.29 0.057,1.774 -0.148,3.546 -0.61,5.26 l -28,-0.19 c -0.175,-1.633 -0.439,-3.255 -0.79,-4.86 1.582,-0.763 2.625,-2.326 2.72,-4.08 0,-2.81 -3,-5.09 -6.71,-5.09 -3.71,0 -6.71,2.28 -6.71,5.09 0.105,1.838 1.234,3.461 2.92,4.2 -0.056,1.596 -0.342,3.176 -0.85,4.69 l -17.75,-0.12 c -6,-0.61 -4.5,-9 -4.5,-9 l 13.53,-69.23 c 0,0 29.23,2.25 55.3,4.5 C 4.93,-26.97 0,0 0,0"
             style="fill:#ffffff;fill-opacity:1;fill-rule:nonzero;stroke:none"
             id="path4036"
             inkscape:connector-curvature="0" /></g><g
           id="g4038"
           transform="translate(0.61,18.43)"><path
             d="m 0,0 c 0,0 -2.51,-7.75 2.7,-8.09 6.74,-0.44 22,1.35 22,1.35 l -11.24,54 z"
             style="fill:#ffffff;fill-opacity:1;fill-rule:nonzero;stroke:none"
             id="path4040"
             inkscape:connector-curvature="0" /></g><g
           id="g4042"
           transform="translate(71.93,84.53)"><path
             d="m 0,0 c 1.673,-0.134 3.184,-1.054 4.07,-2.48 0.765,-1.055 1.368,-2.217 1.79,-3.45 0.814,-2.361 1.223,-4.843 1.21,-7.34 0.007,-1.946 -0.232,-3.884 -0.71,-5.77 3.84,-0.83 4.59,6.31 4.59,10.71 -0.004,0.814 -0.071,1.626 -0.2,2.43 -0.23,1.498 -0.688,2.952 -1.36,4.31 -1.94,3.9 -5.5,6.52 -9.59,6.52 -4.62,0 -8.58,-3.34 -10.27,-8.09 h 5.89 C -3.34,-1.19 -1.74,0 0,0"
             style="fill:#ffffff;fill-opacity:1;fill-rule:nonzero;stroke:none"
             id="path4044"
             inkscape:connector-curvature="0" /></g><g
           id="g4046"
           transform="translate(35.06,85.87)"><path
             d="m 0,0 c 1.84,0 3.5,-1.32 4.76,-3.47 0.19,-0.32 0.37,-0.66 0.54,-1 0.449,-0.965 0.807,-1.969 1.07,-3 0.945,-3.782 0.945,-7.738 0,-11.52 4,-2.61 4.59,6.31 4.59,10.71 v 0.84 c -0.052,1.012 -0.203,2.017 -0.45,3 -0.158,0.551 -0.349,1.092 -0.57,1.62 -1.75,4.58 -5.62,7.77 -10.13,7.77 -5,0 -9.3,-4 -10.68,-9.44 H -5.3 C -4,-1.74 -2.11,0 0,0"
             style="fill:#ffffff;fill-opacity:1;fill-rule:nonzero;stroke:none"
             id="path4048"
             inkscape:connector-curvature="0" /></g></g></g></g></svg>